<svg width="509" height="665" viewBox="0 0 509 665" fill="none" xmlns="http://www.w3.org/2000/svg">
<g clip-path="url(#clip0_257_3)">
<path d="M119.86 108V184.68C119.86 185.43 119.25 186.03 118.51 186.03H81.68C80.93 186.03 80.33 185.42 80.33 184.68V147.56C80.33 146.81 79.72 146.21 78.98 146.21H40.72C39.97 146.21 39.37 146.82 39.37 147.56V169.09C39.37 169.45 39.51 169.79 39.77 170.05L119.88 250.16L119.85 250.19H119.88V329.56H119.86L119.88 329.58L87.82 361.64L60.82 388.65C60.29 389.18 59.43 389.18 58.91 388.65L0.230011 329.97C-0.019989 329.72 -0.170013 329.37 -0.170013 329.01V251.54C-0.170013 250.79 0.439993 250.19 1.17999 250.19H38C38.75 250.19 39.35 250.8 39.35 251.54V312.62C39.35 312.98 39.49 313.32 39.75 313.58L58.89 332.72C59.42 333.25 60.28 333.25 60.8 332.72L79.92 313.6C80.17 313.35 80.32 313 80.32 312.64V267.1C80.32 266.74 80.18 266.4 79.92 266.14L0.200012 186.42C-0.0499878 186.17 -0.200012 185.82 -0.200012 185.46V108C-0.200012 107.25 0.409994 106.65 1.14999 106.65H118.49C119.26 106.64 119.86 107.25 119.86 108Z" fill="black"/>
<path d="M248.49 250.71C249.24 250.71 249.84 251.32 249.84 252.06V329.55L249.82 329.57L217.67 361.72L190.67 388.72C190.14 389.25 189.28 389.25 188.76 388.72L161.75 361.72L129.98 329.95C129.73 329.7 129.58 329.35 129.58 328.99V108C129.58 107.25 130.19 106.65 130.93 106.65H248.3C249.05 106.65 249.65 107.26 249.65 108V184.68C249.65 185.43 249.04 186.03 248.3 186.03H211.45C210.7 186.03 210.1 185.42 210.1 184.68V147.56C210.1 146.81 209.49 146.21 208.75 146.21H170.5C169.75 146.21 169.15 146.82 169.15 147.56V197.25C169.15 198 169.76 198.6 170.5 198.6H207.49C208.24 198.6 208.84 199.21 208.84 199.95V236.78C208.84 237.53 208.23 238.13 207.49 238.13H170.5C169.75 238.13 169.15 238.74 169.15 239.48V312.59C169.15 312.95 169.29 313.29 169.55 313.55L188.78 332.78C189.31 333.31 190.17 333.31 190.69 332.78L209.92 313.55C210.17 313.3 210.32 312.95 210.32 312.59V252.05C210.32 251.3 210.93 250.7 211.67 250.7H248.49V250.71Z" fill="black"/>
<path d="M389.35 108V329.52C389.35 329.88 389.49 330.22 389.75 330.48L449.32 390.05L449.39 390.12L509.03 330.48C509.28 330.23 509.43 329.88 509.43 329.52V108C509.43 107.25 508.82 106.65 508.08 106.65H390.7C389.95 106.64 389.35 107.25 389.35 108ZM469.46 314.09L450.34 333.21C449.81 333.74 448.95 333.74 448.43 333.21L429.31 314.09C429.06 313.84 428.91 313.49 428.91 313.13V147.55C428.91 146.8 429.52 146.2 430.26 146.2H468.51C469.26 146.2 469.86 146.81 469.86 147.55V313.13C469.86 313.49 469.72 313.84 469.46 314.09Z" fill="black"/>
<path d="M384.41 336.06L384.34 335.99L324.7 395.63C324.45 395.88 324.3 396.23 324.3 396.59V618.9C324.3 619.26 324.44 619.6 324.7 619.86L361.53 656.68C362.38 657.53 363.84 656.93 363.84 655.72V619.46H363.86V529.04C363.86 528.29 364.47 527.69 365.21 527.69H403.46C404.21 527.69 404.81 528.3 404.81 529.04V619.46H404.83V655.72C404.83 656.93 406.29 657.53 407.14 656.68L443.97 619.86C444.22 619.61 444.37 619.26 444.37 618.9V396.59C444.37 396.23 444.23 395.89 443.97 395.63L384.41 336.06ZM363.87 486.8V412.97C363.87 412.61 364.01 412.27 364.27 412.01L383.39 392.89C383.92 392.36 384.78 392.36 385.3 392.89L404.42 412.01C404.67 412.26 404.82 412.61 404.82 412.97V486.8C404.82 487.55 404.21 488.15 403.47 488.15H365.22C364.48 488.16 363.87 487.55 363.87 486.8Z" fill="black"/>
<path d="M314.73 474.72H314.66L314.73 474.79L283.03 506.49C282.5 507.02 282.5 507.88 283.03 508.4L314.33 539.7C314.58 539.95 314.73 540.3 314.73 540.66V619.48H314.68L277.49 656.67C276.64 657.52 275.18 656.92 275.18 655.71V557.04C275.18 556.68 275.04 556.34 274.78 556.08L236.33 517.63C235.48 516.78 234.02 517.38 234.02 518.59V619.48H234V655.72C234 656.93 232.54 657.53 231.69 656.68L194.5 619.49H194.47V396.03H194.5L231.69 358.84C232.54 357.99 234 358.59 234 359.8V396.04H234.02V458.83C234.02 459.19 234.16 459.53 234.42 459.79L253.17 478.54C253.7 479.07 254.56 479.07 255.08 478.54L274.78 458.84C275.03 458.59 275.18 458.24 275.18 457.88V396.04H275.2V359.8C275.2 358.59 276.66 357.99 277.51 358.84L314.72 396.04H314.74V474.72H314.73Z" fill="black"/>
<path d="M147.66 656.68C146.81 657.53 145.35 656.93 145.35 655.72V619.48H145.25V557.08C145.25 556.72 145.11 556.38 144.85 556.12L106.6 517.87C105.75 517.02 104.29 517.62 104.29 518.83V619.48H104.17V655.72C104.17 656.93 102.71 657.53 101.86 656.68L64.67 619.49H64.74V396.59C64.74 396.23 64.88 395.89 65.14 395.63L101.94 358.83C102.79 357.98 104.25 358.58 104.25 359.79V396.03H104.3V459.08C104.3 459.44 104.44 459.78 104.7 460.04L142.95 498.29C143.8 499.14 145.26 498.54 145.26 497.33V396.03H145.28V359.79C145.28 358.58 146.74 357.98 147.59 358.83L184.78 396.02H184.81V619.47H184.88L147.66 656.68Z" fill="black"/>
<path d="M310.78 3.14005V20.94C310.78 21.41 310.4 21.78 309.94 21.78H297.89C297.42 21.78 297.05 22.16 297.05 22.62V98.8201C297.05 99.2901 296.67 99.66 296.21 99.66H274.76C274.29 99.66 273.92 99.2801 273.92 98.8201V22.62C273.92 22.15 273.54 21.78 273.08 21.78H261.08C260.61 21.78 260.24 21.4 260.24 20.94V3.14005C260.24 2.67005 260.62 2.30005 261.08 2.30005H309.95C310.41 2.30005 310.78 2.68005 310.78 3.14005Z" fill="black"/>
<path d="M339.19 3.14005V98.83C339.19 99.3 338.81 99.6701 338.35 99.6701H316.9C316.43 99.6701 316.06 99.29 316.06 98.83V3.14005C316.06 2.67005 316.44 2.30005 316.9 2.30005H338.35C338.81 2.30005 339.19 2.68005 339.19 3.14005Z" fill="black"/>
<path d="M348.48 3.14005C348.48 2.67005 348.86 2.30005 349.32 2.30005H364.85C375.76 2.30005 383.15 2.76004 387.02 3.68004C390.88 4.60004 394.03 6.96005 396.47 10.75C398.91 14.54 400.12 20.5801 400.12 28.8801C400.12 36.4601 399.26 41.55 397.54 44.16C396.23 46.14 393.95 47.53 390.71 48.3C389.91 48.49 389.84 49.6 390.6 49.89C393.43 50.97 395.43 52.29 396.6 53.84C398.18 55.93 399.16 57.84 399.54 59.58C399.92 61.32 400.12 66.13 400.12 73.98V98.8201C400.12 99.2901 399.74 99.66 399.28 99.66H379.48C379.01 99.66 378.64 99.2801 378.64 98.8201V67.31C378.64 62.1 378.26 58.8701 377.51 57.6301C376.83 56.5101 375.15 55.89 372.48 55.78C372.01 55.76 371.61 56.1501 371.61 56.6301V98.83C371.61 99.3 371.23 99.6701 370.77 99.6701H349.32C348.85 99.6701 348.48 99.29 348.48 98.83V3.14005ZM371.61 19.8201V39.7401C371.61 40.2101 372.01 40.6 372.48 40.59C374.62 40.51 376.16 40.12 377.08 39.43C378.12 38.65 378.65 36.1101 378.65 31.8201V26.47C378.65 23.38 378.15 21.36 377.14 20.4C376.25 19.55 374.7 19.07 372.49 18.98C372.01 18.96 371.61 19.3501 371.61 19.8201Z" fill="black"/>
<path d="M409.92 2.30005H446.81C447.28 2.30005 447.65 2.68005 447.65 3.14005V20.94C447.65 21.41 447.27 21.78 446.81 21.78H433.05C432.58 21.78 432.21 22.16 432.21 22.62V39.4C432.21 39.87 432.59 40.2401 433.05 40.2401H445.82C446.29 40.2401 446.66 40.62 446.66 41.08V57.92C446.66 58.39 446.28 58.76 445.82 58.76H433.05C432.58 58.76 432.21 59.1401 432.21 59.6001V79.33C432.21 79.8 432.59 80.17 433.05 80.17H448.34C448.81 80.17 449.18 80.55 449.18 81.01V98.81C449.18 99.28 448.8 99.65 448.34 99.65H409.91C409.44 99.65 409.07 99.27 409.07 98.81V3.12004C409.08 2.68004 409.46 2.30005 409.92 2.30005Z" fill="black"/>
<path d="M504.01 31.77H484.21C483.74 31.77 483.37 31.39 483.37 30.93V24.55C483.37 21.18 483.09 19.04 482.54 18.12C481.99 17.2 481.07 16.74 479.79 16.74C478.4 16.74 477.34 17.36 476.63 18.61C475.91 19.85 475.56 21.74 475.56 24.27C475.56 27.52 475.96 29.97 476.76 31.61C477.53 33.26 479.7 35.24 483.3 37.56C493.6 44.25 500.08 49.74 502.76 54.03C505.43 58.32 506.77 65.24 506.77 74.78C506.77 81.72 506.03 86.83 504.54 90.12C503.06 93.41 500.19 96.16 495.94 98.39C491.69 100.62 486.75 101.73 481.1 101.73C474.91 101.73 469.63 100.45 465.25 97.88C460.87 95.31 458.01 92.05 456.65 88.08C455.29 84.11 454.62 78.48 454.62 71.18V65.65C454.62 65.18 455 64.81 455.46 64.81H475.26C475.73 64.81 476.1 65.19 476.1 65.65V76.66C476.1 80.31 476.4 82.65 477.01 83.7C477.61 84.74 478.69 85.26 480.22 85.26C481.76 85.26 482.9 84.6 483.65 83.28C484.4 81.96 484.78 79.99 484.78 77.39C484.78 71.66 484.07 67.91 482.64 66.14C481.17 64.38 477.57 61.43 471.82 57.3C466.07 53.13 462.26 50.1 460.39 48.22C458.52 46.34 456.97 43.73 455.75 40.4C454.52 37.07 453.91 32.82 453.91 27.65C453.91 20.19 454.78 14.74 456.52 11.29C458.26 7.84002 461.07 5.15003 464.95 3.20003C468.83 1.26003 473.52 0.280029 479.02 0.280029C485.03 0.280029 490.15 1.34003 494.38 3.47003C498.61 5.60003 501.41 8.27003 502.79 11.5C504.16 14.73 504.85 20.21 504.85 27.95V30.96C504.86 31.39 504.48 31.77 504.01 31.77Z" fill="black"/>
<path d="M259.57 108V184.68C259.57 185.43 260.18 186.03 260.92 186.03H297.75C298.5 186.03 299.1 185.42 299.1 184.68V147.56C299.1 146.81 299.71 146.21 300.45 146.21H338.71C339.46 146.21 340.06 146.82 340.06 147.56V169.09C340.06 169.45 339.92 169.79 339.66 170.05L259.55 250.16L259.58 250.19H259.55V329.56H259.57L259.55 329.58L291.61 361.64L318.61 388.65C319.14 389.18 320 389.18 320.52 388.65L379.2 329.97C379.45 329.72 379.6 329.37 379.6 329.01V251.54C379.6 250.79 378.99 250.19 378.25 250.19H341.42C340.67 250.19 340.07 250.8 340.07 251.54V312.62C340.07 312.98 339.93 313.32 339.67 313.58L320.53 332.72C320 333.25 319.14 333.25 318.62 332.72L299.5 313.6C299.25 313.35 299.1 313 299.1 312.64V267.1C299.1 266.74 299.24 266.4 299.5 266.14L379.22 186.42C379.47 186.17 379.62 185.82 379.62 185.46V108C379.62 107.25 379.01 106.65 378.27 106.65H260.93C260.18 106.64 259.57 107.25 259.57 108Z" fill="black"/>
</g>
<defs>
<clipPath id="clip0_257_3">
<rect width="509" height="665" fill="white"/>
</clipPath>
</defs>
</svg>
